<svg width="357" height="311" viewBox="0 0 357 311" fill="none" xmlns="http://www.w3.org/2000/svg">
<path d="M305.821 129.94H305.793C305.793 129.77 305.821 129.6 305.821 129.429C305.821 106.226 284.234 87.3959 257.57 87.3959C254.14 87.3959 250.793 87.7117 247.585 88.3191C238.019 68.0555 215.176 53.769 188.457 53.769C168.404 53.769 150.526 61.8355 138.812 74.4213C131.034 70.9776 122.435 69.1796 113.71 69.1732C84.8434 69.1732 61.1364 88.3191 58.3752 112.835C26.9983 114.292 1.81305 136.694 1.39469 164.514C0.948437 193.476 27.584 217.287 60.8296 217.651C63.4234 217.676 65.9336 217.53 68.4438 217.263C81.3013 240.879 108.885 257.207 140.876 257.207C160.176 257.207 177.859 251.254 191.692 241.365C202.263 248.193 215.316 252.274 229.484 252.274C258.546 252.274 283.006 235.291 290.62 212.087C295.418 213.472 300.522 214.25 305.849 214.25C332.568 214.25 354.239 195.371 354.239 172.095C354.211 148.818 332.568 129.94 305.821 129.94Z" fill="#FFF8B0"/>
<path d="M334.269 137.982C345.23 147.628 337.477 169.738 329.946 176.954C315.108 191.119 287.887 187.815 276.954 185.774C273.998 185.215 273.523 185.409 272.547 185.92C271.683 186.381 271.292 187.11 270.344 188.835C266.83 195.444 257.737 208.249 238.549 213.399C218.551 218.769 199.697 210.581 190.884 205.697C187.537 203.851 187.397 203.802 185.891 203.826C184.357 203.851 182.851 204.823 181.038 206.062C173.061 211.529 154.849 221.174 126.763 219.765C99.2349 218.38 83.4767 203.608 78.0659 196.003C77.034 194.545 75.9184 193.33 74.6354 193.209C73.1572 193.087 71.5117 194.399 70.2845 195.468C58.5704 205.406 21.699 208.394 9.48291 191.459C21.9221 208.832 41.1388 217.433 60.8574 217.651C63.4513 217.676 65.9614 217.53 68.4716 217.263C81.3292 240.879 108.913 257.207 140.904 257.207C160.204 257.207 177.886 251.254 191.72 241.365C202.291 248.193 215.344 252.274 229.512 252.274C258.574 252.274 283.034 235.291 290.648 212.087C295.445 213.472 300.549 214.25 305.877 214.25C332.596 214.25 354.267 195.371 354.267 172.095C354.211 159.703 347.071 145.708 334.269 137.982Z" fill="#FFE4A8" fill-opacity="0.45"/>
</svg>
