<svg width="404" height="132" viewBox="0 0 404 132" fill="none" xmlns="http://www.w3.org/2000/svg">
<g clip-path="url(#clip0_68_101)">
<path d="M66.9987 76.9792C65.8998 79.2963 62.4085 78.7701 59.2318 77.0948C58.2141 75.7364 56.8218 74.9078 55.4895 74.4L56.2831 70.3669C60.6501 69.4583 67.9575 72.6152 67.2589 76.1666C67.2057 76.4473 67.1175 76.7202 66.9965 76.979L66.9987 76.9792ZM53.8582 73.9686L54.6674 69.8635C47.6967 66.6875 47.4121 75.215 53.8582 73.9686ZM34.9935 68.4576C35.1146 68.1988 35.2027 67.9258 35.2559 67.6451C35.9545 64.0938 28.6474 60.9369 24.2802 61.8456L23.4866 65.8787C24.8189 66.3865 26.2099 67.2159 27.2292 68.5734C30.4056 70.2487 33.8969 70.7749 34.996 68.4578L34.9935 68.4576ZM21.8529 65.4468L22.6625 61.3419C15.6936 58.1684 15.408 66.6948 21.8544 65.4458L21.8529 65.4468ZM48.2314 86.4648C48.9101 83.9921 45.9204 82.1143 42.4213 81.3114C40.7643 81.6758 39.1681 81.3968 37.8274 80.9132L35.7953 84.4904C38.5137 88.0269 46.111 90.4013 47.8976 87.2534C48.0405 87.0061 48.1518 86.7418 48.2289 86.4668L48.2314 86.4648ZM36.3073 80.1759C32.2347 75.0259 26.8887 81.6757 34.244 83.8141L36.3073 80.1759ZM80.3681 92.5988C80.4115 90.0351 77.0541 88.9625 73.4658 89.0442C71.9509 89.8097 70.332 89.9299 68.9168 89.7972L67.8384 93.7637C71.3431 96.5199 79.296 96.9416 80.243 93.4456C80.3205 93.1707 80.3633 92.8871 80.3702 92.6015L80.3681 92.5988ZM67.2601 89.4623C62.0381 85.4819 58.5059 93.2495 66.1625 93.499L67.2588 89.4633L67.2601 89.4623Z" fill="#7E7C7A"/>
</g>
<g clip-path="url(#clip1_68_101)">
<path d="M161.71 75.7505C161.548 78.3099 158.111 79.1158 154.539 78.7377C153.09 77.8535 151.49 77.6001 150.065 77.6225L149.306 73.5826C153.025 71.1196 160.982 71.3421 161.65 74.8994C161.705 75.1798 161.724 75.4659 161.708 75.7511L161.71 75.7505ZM148.39 77.8267L147.619 73.7142C139.968 73.3491 142.865 81.3743 148.39 77.8267ZM128.826 79.7031C128.843 79.4179 128.823 79.1317 128.769 78.8513C128.101 75.2941 120.144 75.0716 116.425 77.5347L117.183 81.5746C118.609 81.5522 120.208 81.8067 121.658 82.6895C125.229 83.0677 128.667 82.2619 128.829 79.7024L128.826 79.7031ZM115.506 81.7792L114.736 77.6667C107.087 77.3033 109.983 85.3279 115.507 81.7777L115.506 81.7792ZM147.797 91.5185C147.511 88.9704 144.038 88.335 140.49 88.8867C139.087 89.8395 137.501 90.1722 136.076 90.2202L135.515 94.2958C139.351 96.5724 147.287 95.9606 147.78 92.3747C147.821 92.092 147.826 91.8053 147.796 91.5212L147.797 91.5185ZM134.391 90.099C128.699 86.8262 126.2 94.9841 133.824 94.2429L134.391 90.099ZM179.918 85.2997C179.007 82.9027 175.492 83.1514 172.189 84.5577C171.066 85.8303 169.607 86.5422 168.244 86.9437L168.713 91.0273C172.99 92.2876 180.532 89.7305 180.115 86.1325C180.085 85.8484 180.02 85.5692 179.92 85.3014L179.918 85.2997ZM166.581 87.2469C160.255 85.4864 159.855 94.01 167.058 91.4028L166.58 87.2483L166.581 87.2469Z" fill="#7E7C7A"/>
</g>
<g clip-path="url(#clip2_68_101)">
<path d="M269.987 57.912C270.23 60.4649 266.962 61.8015 263.375 61.9899C261.805 61.3445 260.185 61.3461 258.781 61.5924L257.397 57.7221C260.682 54.7048 268.575 53.6729 269.794 57.0808C269.892 57.3492 269.956 57.6287 269.985 57.913L269.987 57.912ZM257.159 62.0576L255.751 58.1174C248.137 58.9604 252.261 66.43 257.159 62.0576ZM238.134 66.9878C238.106 66.7035 238.041 66.424 237.943 66.1556C236.724 62.7478 228.831 63.7796 225.546 66.797L226.931 70.6673C228.335 70.421 229.954 70.4208 231.525 71.0645C235.111 70.8763 238.379 69.5397 238.136 66.9867L238.134 66.9878ZM225.306 71.1332L223.899 67.1931C216.288 68.0374 220.41 75.5065 225.307 71.1316L225.306 71.1332ZM258.727 75.6721C258.044 73.2008 254.514 73.1195 251.098 74.2223C249.861 75.3841 248.347 75.9621 246.948 76.2335L247.035 80.3467C251.182 81.9915 258.923 80.1391 258.845 76.5203C258.841 76.2347 258.801 75.9507 258.726 75.675L258.727 75.6721ZM245.265 76.379C239.129 74.0421 237.944 82.4917 245.357 80.5605L245.265 76.379ZM289.47 64.4784C288.194 62.2543 284.761 63.0529 281.721 64.9612C280.812 66.3946 279.483 67.3271 278.2 67.9381L279.306 71.8971C283.727 72.4689 290.774 68.7573 289.796 65.2697C289.722 64.9938 289.613 64.7284 289.473 64.4796L289.47 64.4784ZM276.606 68.4991C270.082 67.7555 271.027 76.236 277.731 72.5282L276.605 68.5006L276.606 68.4991Z" fill="#7E7C7A"/>
</g>
<g clip-path="url(#clip3_68_101)">
<path d="M371.64 42.2183C371.337 44.7647 367.86 45.3783 364.315 44.8023C362.918 43.8388 361.334 43.497 359.909 43.44L359.377 39.3642C363.227 37.1118 371.159 37.7763 371.628 41.3652C371.667 41.6482 371.671 41.935 371.638 42.2188L371.64 42.2183ZM358.225 43.5508L357.685 39.4018C350.065 38.6119 352.512 46.7858 358.225 43.5508ZM338.588 44.3367C338.62 44.0528 338.617 43.766 338.578 43.483C338.109 39.8942 330.177 39.2297 326.326 41.4822L326.859 45.558C328.284 45.6149 329.867 45.958 331.265 46.92C334.81 47.4962 338.287 46.8826 338.59 44.3361L338.588 44.3367ZM325.173 45.669L324.633 41.5201C317.016 40.7321 319.461 48.9052 325.174 45.6677L325.173 45.669ZM356.873 57.1885C356.728 54.6284 353.296 53.8009 349.724 54.1545C348.269 55.0278 346.667 55.2718 345.242 55.2405L344.456 59.2787C348.159 61.765 356.117 61.5954 356.808 58.0423C356.864 57.7624 356.886 57.4764 356.871 57.1911L356.873 57.1885ZM343.566 55.0259C338.065 51.4417 335.116 59.4481 342.77 59.1319L343.566 55.0259ZM389.289 52.765C388.514 50.321 384.99 50.3739 381.614 51.5945C380.422 52.8027 378.926 53.4324 377.542 53.7575L377.783 57.8608C381.984 59.3569 389.656 57.2231 389.44 53.6075C389.426 53.3222 389.377 53.0398 389.292 52.7669L389.289 52.765ZM375.865 53.9678C369.647 51.8583 368.773 60.3465 376.111 58.1438L375.864 53.9691L375.865 53.9678Z" fill="#7E7C7A"/>
</g>
<defs>
<clipPath id="clip0_68_101">
<rect width="70" height="70" fill="white" transform="translate(97.812 85.4584) rotate(143.866)"/>
</clipPath>
<clipPath id="clip1_68_101">
<rect width="70" height="70" fill="white" transform="translate(193.471 72.2004) rotate(122.102)"/>
</clipPath>
<clipPath id="clip2_68_101">
<rect width="70" height="70" fill="white" transform="translate(300.794 49.4102) rotate(113.053)"/>
</clipPath>
<clipPath id="clip3_68_101">
<rect width="70" height="70" fill="white" transform="translate(403.55 40.4394) rotate(125.289)"/>
</clipPath>
</defs>
</svg>
