<svg width="41" height="41" viewBox="0 0 41 41" fill="none" xmlns="http://www.w3.org/2000/svg">
<path d="M11.1042 29.8958C8.28542 29.8958 5.97917 27.5896 5.97917 24.7708L5.97917 16.2292C5.97917 13.4104 8.28542 11.1042 11.1042 11.1042V7.6875C6.40625 7.6875 2.5625 11.5312 2.5625 16.2292L2.5625 24.7708C2.5625 29.4688 6.40625 33.3125 11.1042 33.3125H20.6708V29.8958H11.1042Z" fill="#FEFEFE"/>
<path d="M18.7917 37.0709L25.9667 31.6042L18.7917 26.1375V37.0709Z" fill="#FEFEFE"/>
<path d="M29.8958 11.1042C32.7146 11.1042 35.0208 13.4104 35.0208 16.2292V24.7708C35.0208 27.5896 32.7146 29.8958 29.8958 29.8958V33.3125C34.5937 33.3125 38.4375 29.4688 38.4375 24.7708V16.2292C38.4375 11.5312 34.5937 7.6875 29.8958 7.6875H19.6458V11.1042H29.8958Z" fill="#FEFEFE"/>
<path d="M22.2083 14.8625L15.0333 9.39582L22.2083 3.92915V14.8625Z" fill="#FEFEFE"/>
</svg>
