<svg width="41" height="41" viewBox="0 0 41 41" fill="none" xmlns="http://www.w3.org/2000/svg">
<path d="M11.1042 29.8958C8.28542 29.8958 5.97917 27.5896 5.97917 24.7708L5.97917 16.2292C5.97917 13.4104 8.28542 11.1042 11.1042 11.1042V7.6875C6.40625 7.6875 2.5625 11.5312 2.5625 16.2292L2.5625 24.7708C2.5625 29.4687 6.40625 33.3125 11.1042 33.3125H20.6708V29.8958H11.1042Z" fill="black"/>
<path d="M18.7915 37.0708L25.9665 31.6041L18.7915 26.1375V37.0708Z" fill="black"/>
<path d="M29.8955 11.1042C32.7143 11.1042 35.0205 13.4104 35.0205 16.2292V24.7708C35.0205 27.5896 32.7143 29.8958 29.8955 29.8958V33.3125C34.5934 33.3125 38.4372 29.4687 38.4372 24.7708V16.2292C38.4372 11.5312 34.5934 7.6875 29.8955 7.6875H19.6455V11.1042H29.8955Z" fill="black"/>
<path d="M22.2082 14.8625L15.0332 9.39588L22.2082 3.92921V14.8625Z" fill="black"/>
</svg>
