<svg width="402" height="131" viewBox="0 0 402 131" fill="none" xmlns="http://www.w3.org/2000/svg">
<g clip-path="url(#clip0_59_4)">
<path d="M66.2238 73.9792C65.1249 76.2962 61.6336 75.7701 58.4569 74.0948C57.4392 72.7364 56.0469 71.9078 54.7146 71.4L55.5082 67.3669C59.8752 66.4583 67.1826 69.6152 66.484 73.1666C66.4308 73.4473 66.3426 73.7202 66.2216 73.9789L66.2238 73.9792ZM53.0833 70.9686L53.8925 66.8635C46.9218 63.6875 46.6372 72.215 53.0833 70.9686ZM34.2186 65.4575C34.3397 65.1987 34.4278 64.9258 34.481 64.6451C35.1796 61.0938 27.8725 57.9369 23.5053 58.8456L22.7117 62.8787C24.044 63.3865 25.435 64.2159 26.4543 65.5734C29.6307 67.2487 33.122 67.7748 34.2211 65.4577L34.2186 65.4575ZM21.078 62.4467L21.8876 58.3419C14.9187 55.1684 14.6331 63.6948 21.0795 62.4458L21.078 62.4467ZM47.4565 83.4648C48.1351 80.9921 45.1455 79.1143 41.6464 78.3114C39.9894 78.6758 38.3932 78.3967 37.0525 77.9132L35.0204 81.4904C37.7388 85.0269 45.3361 87.4013 47.1227 84.2534C47.2656 84.006 47.3769 83.7418 47.454 83.4667L47.4565 83.4648ZM35.5324 77.1759C31.4598 72.0259 26.1138 78.6756 33.4691 80.814L35.5324 77.1759ZM79.5932 89.5988C79.6366 87.0351 76.2792 85.9625 72.6909 86.0442C71.176 86.8097 69.5571 86.9299 68.1419 86.7972L67.0635 90.7637C70.5682 93.5199 78.5211 93.9416 79.4681 90.4456C79.5456 90.1707 79.5884 89.8871 79.5953 89.6015L79.5932 89.5988ZM66.4852 86.4623C61.2632 82.4819 57.731 90.2495 65.3876 90.4989L66.4839 86.4632L66.4852 86.4623Z" fill="#7E7C7A"/>
</g>
<g clip-path="url(#clip1_59_4)">
<path d="M164.935 74.7505C164.773 77.3099 161.336 78.1158 157.764 77.7377C156.316 76.8535 154.715 76.6002 153.29 76.6225L152.531 72.5826C156.25 70.1197 164.207 70.3421 164.875 73.8994C164.93 74.1798 164.949 74.4659 164.933 74.7511L164.935 74.7505ZM151.615 76.8268L150.844 72.7142C143.193 72.3492 146.09 80.3744 151.615 76.8268ZM132.051 78.7031C132.068 78.4179 132.048 78.1317 131.994 77.8513C131.326 74.2941 123.369 74.0716 119.65 76.5347L120.408 80.5746C121.834 80.5522 123.433 80.8067 124.883 81.6895C128.454 82.0678 131.892 81.2619 132.054 78.7024L132.051 78.7031ZM118.731 80.7792L117.961 76.6667C110.312 76.3034 113.208 84.3279 118.732 80.7778L118.731 80.7792ZM151.022 90.5185C150.736 87.9704 147.263 87.335 143.716 87.8867C142.312 88.8395 140.726 89.1722 139.301 89.2202L138.741 93.2959C142.576 95.5724 150.513 94.9606 151.005 91.3747C151.046 91.092 151.051 90.8053 151.021 90.5213L151.022 90.5185ZM137.616 89.0991C131.924 85.8262 129.425 93.9841 137.049 93.2429L137.616 89.0991ZM183.143 84.2997C182.232 81.9027 178.717 82.1514 175.414 83.5578C174.291 84.8303 172.832 85.5422 171.469 85.9437L171.938 90.0273C176.215 91.2876 183.757 88.7305 183.34 85.1325C183.31 84.8485 183.245 84.5692 183.146 84.3014L183.143 84.2997ZM169.806 86.2469C163.48 84.4864 163.08 93.01 170.283 90.4028L169.805 86.2483L169.806 86.2469Z" fill="#7E7C7A"/>
</g>
<g clip-path="url(#clip2_59_4)">
<path d="M269.212 52.9121C269.455 55.4649 266.187 56.8015 262.6 56.9899C261.031 56.3446 259.41 56.3461 258.006 56.5924L256.622 52.7221C259.907 49.7048 267.8 48.673 269.019 52.0809C269.117 52.3492 269.181 52.6287 269.21 52.913L269.212 52.9121ZM256.384 57.0576L254.976 53.1174C247.363 53.9605 251.486 61.43 256.384 57.0576ZM237.359 61.9878C237.331 61.7035 237.267 61.424 237.168 61.1556C235.949 57.7478 228.057 58.7796 224.771 61.797L226.156 65.6673C227.56 65.421 229.18 65.4208 230.75 66.0645C234.336 65.8763 237.604 64.5398 237.362 61.9867L237.359 61.9878ZM224.531 66.1332L223.124 62.1931C215.513 63.0374 219.635 70.5065 224.532 66.1317L224.531 66.1332ZM257.953 70.6721C257.269 68.2008 253.739 68.1196 250.323 69.2223C249.086 70.3841 247.573 70.9621 246.173 71.2335L246.261 75.3467C250.407 76.9916 258.148 75.1391 258.07 71.5204C258.066 71.2347 258.026 70.9508 257.951 70.675L257.953 70.6721ZM244.49 71.379C238.354 69.0422 237.169 77.4917 244.582 75.5605L244.49 71.379ZM288.695 59.4784C287.419 57.2543 283.986 58.0529 280.946 59.9612C280.037 61.3946 278.708 62.3272 277.425 62.9381L278.531 66.8971C282.953 67.469 289.999 63.7573 289.021 60.2697C288.947 59.9939 288.838 59.7284 288.698 59.4796L288.695 59.4784ZM275.831 63.4991C269.307 62.7555 270.252 71.236 276.956 67.5282L275.83 63.5006L275.831 63.4991Z" fill="#7E7C7A"/>
</g>
<path d="M370.865 39.2183C370.562 41.7647 367.085 42.3783 363.54 41.8023C362.143 40.8388 360.559 40.497 359.134 40.44L358.602 36.3642C362.452 34.1118 370.384 34.7763 370.853 38.3652C370.892 38.6482 370.896 38.935 370.863 39.2188L370.865 39.2183ZM357.451 40.5508L356.91 36.4018C349.291 35.6119 351.737 43.7858 357.451 40.5508ZM337.813 41.3367C337.845 41.0528 337.842 40.766 337.803 40.483C337.334 36.8942 329.402 36.2297 325.552 38.4822L326.084 42.558C327.509 42.6149 329.092 42.958 330.49 43.92C334.035 44.4962 337.512 43.8826 337.816 41.3361L337.813 41.3367ZM324.398 42.669L323.858 38.5201C316.241 37.7321 318.686 45.9052 324.399 42.6677L324.398 42.669ZM356.098 54.1885C355.953 51.6284 352.521 50.8009 348.949 51.1545C347.494 52.0278 345.892 52.2718 344.467 52.2405L343.681 56.2787C347.384 58.765 355.342 58.5954 356.033 55.0423C356.089 54.7624 356.111 54.4764 356.096 54.1911L356.098 54.1885ZM342.792 52.0259C337.29 48.4417 334.342 56.4481 341.995 56.1319L342.792 52.0259ZM388.514 49.765C387.739 47.321 384.215 47.3739 380.839 48.5945C379.647 49.8027 378.151 50.4324 376.767 50.7575L377.009 54.8608C381.209 56.3569 388.882 54.2231 388.666 50.6075C388.651 50.3222 388.602 50.0398 388.517 49.7669L388.514 49.765ZM375.09 50.9678C368.872 48.8583 367.999 57.3465 375.336 55.1438L375.089 50.9691L375.09 50.9678Z" fill="#7E7C7A"/>
<defs>
<clipPath id="clip0_59_4">
<rect width="70" height="70" fill="white" transform="translate(97.0371 82.4584) rotate(143.866)"/>
</clipPath>
<clipPath id="clip1_59_4">
<rect width="70" height="70" fill="white" transform="translate(196.696 71.2004) rotate(122.102)"/>
</clipPath>
<clipPath id="clip2_59_4">
<rect width="70" height="70" fill="white" transform="translate(300.019 44.4102) rotate(113.053)"/>
</clipPath>
</defs>
</svg>
