<svg width="387" height="938" viewBox="0 0 387 938" fill="none" xmlns="http://www.w3.org/2000/svg">
<g clip-path="url(#clip0_68_86)">
<path d="M153.885 836.135C157.361 838.671 155.184 841.877 151.198 844.058C148.543 844.251 146.638 845.149 145.292 846.184L138.827 842.901C138.924 837.927 146.926 832.481 152.62 835.372C153.071 835.598 153.495 835.855 153.884 836.137L153.885 836.135ZM143.964 847.568L137.383 844.225C129.474 849.318 143.662 854.851 143.964 847.568ZM127.728 863.25C127.339 862.968 126.914 862.711 126.463 862.485C120.77 859.594 112.768 865.04 112.67 870.014L119.136 873.297C120.481 872.262 122.388 871.366 125.041 871.171C129.028 868.99 131.205 865.784 127.729 863.247L127.728 863.25ZM117.806 874.683L111.226 871.34C103.321 876.433 117.507 881.966 117.805 874.681L117.806 874.683ZM162.822 860.943C158.929 858.736 154.672 860.603 152.028 863.647C152.024 865.546 150.965 866.988 149.657 868.046L154.899 872.301C161.835 871.728 168.633 865.508 164.02 861.765C163.658 861.469 163.257 861.194 162.824 860.947L162.822 860.943ZM147.857 869.13C137.714 870.079 146.876 879.574 153.189 873.453L147.857 869.13ZM185.026 832.226C180.745 830.605 177.702 833.34 176.508 837.018C177.228 839.02 176.829 840.731 176.082 842.08L182.33 845.61C188.25 843.762 191.908 835.981 186.399 832.873C185.967 832.626 185.508 832.408 185.032 832.226L185.026 832.226ZM174.906 843.549C166.297 846.38 178.006 854.729 181.265 847.141L174.907 843.551L174.906 843.549Z" fill="#7E7C7A"/>
</g>
<g clip-path="url(#clip1_68_86)">
<path d="M186.964 739.627C191.194 741.365 191.269 745.336 189.311 748.714C187.291 749.635 186.273 751.097 185.781 752.552L178.728 750.834C175.98 745.559 179.305 737.651 185.515 739.164C186.005 739.281 186.492 739.438 186.964 739.63L186.964 739.627ZM185.502 754.371L178.323 752.62C174.872 760.131 189.399 762.138 185.502 754.371ZM181.389 775.303C180.917 775.111 180.43 774.955 179.94 774.838C173.73 773.325 170.405 781.232 173.153 786.507L180.206 788.225C180.698 786.77 181.718 785.31 183.735 784.387C185.694 781.009 185.619 777.038 181.389 775.3L181.389 775.303ZM179.927 790.047L172.748 788.296C169.301 795.805 183.826 797.813 179.925 790.045L179.927 790.047ZM208.232 763.392C203.854 762.114 201.501 765.234 201.11 769.16C202.186 771.165 202.155 772.973 201.707 774.443L208.33 777.517C213.569 775.039 215.488 766.639 209.66 763.936C209.202 763.721 208.723 763.539 208.236 763.395L208.232 763.392ZM200.879 776.072C193.281 779.813 206.028 787.358 207.614 779.194L200.879 776.072ZM209.725 727.093C205.37 726.539 204.482 730.246 205.614 734.45C207.33 736.368 207.982 738.281 208.15 739.906L215.168 741.944C218.867 738.395 217.38 729.197 211.194 727.405C210.707 727.261 210.215 727.155 209.729 727.091L209.725 727.093ZM208.041 741.774C202.743 747.086 216.881 752.734 215.184 743.848L208.043 741.776L208.041 741.774Z" fill="#7E7C7A"/>
</g>
<g clip-path="url(#clip2_68_86)">
<path d="M197.236 619.188C201.605 620.513 202.633 624.639 201.619 628.38C199.954 629.57 199.356 631.209 199.248 632.781L192.247 631.8C188.408 626.623 189.607 618.008 195.772 618.872C196.258 618.938 196.75 619.045 197.237 619.191L197.236 619.188ZM199.426 634.707L192.299 633.706C190.887 641.922 204.937 642.348 199.426 634.707ZM200.631 656.973C200.144 656.827 199.652 656.72 199.165 656.654C193.001 655.79 191.802 664.405 195.641 669.582L202.642 670.563C202.75 668.992 203.35 667.354 205.012 666.162C206.027 662.421 204.999 658.295 200.63 656.97L200.631 656.973ZM202.82 672.492L195.694 671.491C194.285 679.705 208.334 680.132 202.818 672.49L202.82 672.492ZM222.827 641.495C218.432 640.666 216.986 644.185 217.567 648.317C219.055 650.282 219.463 652.168 219.398 653.749L226.325 656.191C230.62 653.011 230.387 644.045 224.293 641.898C223.813 641.727 223.322 641.592 222.832 641.498L222.827 641.495ZM219.018 655.54C212.824 660.306 226.547 666.701 226.061 658.02L219.018 655.54ZM215.471 603.53C211.27 603.452 211.335 607.413 213.405 611.661C215.471 613.461 216.541 615.378 217.089 617.052L224.135 618.369C226.734 614.25 223.127 604.844 216.918 603.686C216.428 603.592 215.943 603.538 215.474 603.527L215.471 603.53ZM217.437 619.009C213.771 625.147 228.336 629.407 224.608 620.349L217.44 619.01L217.437 619.009Z" fill="#7E7C7A"/>
</g>
<path d="M208.646 506.764C212.801 508.637 212.539 512.529 210.259 515.759C208.125 516.579 206.965 517.97 206.341 519.375L199.312 517.407C196.965 512.129 201.021 504.518 207.211 506.251C207.7 506.386 208.182 506.559 208.645 506.766L208.646 506.764ZM205.902 521.146L198.747 519.14C194.596 526.357 209.205 528.912 205.902 521.146ZM199.934 541.482C199.47 541.275 198.988 541.102 198.499 540.967C192.309 539.234 188.253 546.845 190.6 552.123L197.629 554.091C198.253 552.686 199.415 551.297 201.547 550.475C203.827 547.246 204.089 543.353 199.933 541.479L199.934 541.482ZM197.19 555.864L190.035 553.859C185.888 561.074 200.495 563.629 197.188 555.862L197.19 555.864ZM228.259 530.902C223.914 529.473 221.254 532.434 220.521 536.263C221.445 538.271 221.26 540.041 220.679 541.462L227.155 544.741C232.697 542.526 235.365 534.377 229.666 531.493C229.218 531.263 228.746 531.066 228.263 530.905L228.259 530.902ZM219.697 543.024C211.649 546.381 223.974 554.287 226.284 546.355L219.697 543.024ZM232.871 495.408C228.487 494.689 227.268 498.284 228.062 502.448C229.644 504.396 230.145 506.296 230.176 507.895L237.144 510.175C241.21 506.849 240.48 497.779 234.339 495.774C233.856 495.612 233.364 495.489 232.875 495.406L232.871 495.408ZM229.907 509.72C224.064 514.709 237.967 520.813 236.997 512.04L229.908 509.722L229.907 509.72Z" fill="#7E7C7A"/>
<g clip-path="url(#clip3_68_86)">
<path d="M272.382 362.936C277.105 363.724 276.346 367.482 273.265 371.093C270.635 372.381 269.096 373.978 268.193 375.461L260.066 375.268C257.884 370.816 263.58 362.622 270.736 362.792C271.302 362.803 271.854 362.852 272.382 362.938L272.382 362.936ZM267.468 377.247L259.196 377.049C253.433 384.892 270.499 383.834 267.468 377.247ZM258.036 397.982C257.509 397.896 256.956 397.846 256.391 397.835C249.235 397.665 243.539 405.86 245.721 410.312L253.848 410.505C254.751 409.021 256.292 407.425 258.919 406.136C262.001 402.526 262.759 398.767 258.037 397.979L258.036 397.982ZM253.122 412.293L244.85 412.095C239.093 419.936 256.156 418.878 253.12 412.292L253.122 412.293ZM292.913 381.18C287.914 380.859 284.413 384.305 283.101 388.116C283.969 389.802 283.545 391.527 282.691 393.015L290.01 394.584C296.85 391.16 300.958 382.785 294.517 381.405C294.011 381.294 293.473 381.219 292.917 381.182L292.913 381.18ZM281.345 394.733C271.394 399.84 285.132 404.408 288.789 396.325L281.345 394.733ZM302.476 346.376C297.349 346.738 295.487 350.443 295.951 354.207C297.608 355.68 297.984 357.365 297.838 358.876L305.855 359.379C311.069 355.251 311.245 346.813 304.179 346.373C303.623 346.335 303.053 346.335 302.481 346.373L302.476 346.376ZM297.307 360.673C289.791 366.803 305.61 369.284 305.467 361.185L297.309 360.674L297.307 360.673Z" fill="#7E7C7A"/>
</g>
<g clip-path="url(#clip4_68_86)">
<path d="M261.981 263.439C267.109 263.202 269.008 266.692 268.552 270.511C266.907 272.177 266.535 273.902 266.699 275.399L258.689 276.841C253.455 273.318 253.232 264.907 260.285 263.638C260.841 263.536 261.411 263.47 261.982 263.442L261.981 263.439ZM267.248 277.129L259.093 278.596C259.006 286.708 274.801 282.38 267.248 277.129ZM272.639 297.423C272.067 297.451 271.497 297.517 270.941 297.619C263.888 298.889 264.111 307.3 269.345 310.822L277.355 309.38C277.191 307.883 277.566 306.159 279.208 304.492C279.664 300.673 277.766 297.183 272.637 297.421L272.639 297.423ZM277.905 311.113L269.751 312.579C269.666 320.688 285.46 316.361 277.902 311.112L277.905 311.113ZM294.66 275.572C289.592 276.28 288.613 280.037 290.013 283.683C292.035 285.008 292.833 286.625 293.049 288.117L301.241 288.058C305.469 283.658 303.58 275.401 296.373 275.455C295.804 275.456 295.231 275.496 294.666 275.574L294.66 275.572ZM292.948 289.91C286.885 296.422 303.398 297.754 301.277 289.847L292.948 289.91ZM279.538 242.753C274.823 244.093 275.615 247.754 278.703 251.006C281.34 251.985 282.886 253.408 283.802 254.779L291.924 253.635C294.084 248.932 288.341 241.401 281.185 242.412C280.62 242.489 280.068 242.602 279.541 242.75L279.538 242.753ZM284.548 256.481C281.56 263.42 298.628 262.484 292.813 255.317L284.551 256.482L284.548 256.481Z" fill="#7E7C7A"/>
</g>
<g clip-path="url(#clip5_68_86)">
<path d="M217.249 152.308C222.331 151.646 225.276 154.873 225.953 158.618C224.795 160.373 224.934 162.078 225.544 163.517L217.926 165.591C211.62 162.613 208.896 154.47 215.604 152.643C216.132 152.497 216.685 152.385 217.251 152.31L217.249 152.308ZM226.61 165.15L218.854 167.26C221.177 175.14 235.759 169.609 226.61 165.15ZM238.059 184.39C237.493 184.466 236.94 184.578 236.412 184.724C229.703 186.55 232.428 194.693 238.733 197.671L246.352 195.597C245.742 194.158 245.606 192.454 246.76 190.698C246.083 186.953 243.138 183.726 238.056 184.388L238.059 184.39ZM247.419 197.233L239.663 199.342C241.989 207.219 256.57 201.69 247.416 197.232L247.419 197.233ZM253.687 161.331C248.805 162.444 248.939 166.172 251.429 169.593C253.855 170.709 255.137 172.211 255.797 173.64L264.01 172.893C266.949 168.267 262.598 160.414 255.372 161.072C254.802 161.122 254.237 161.209 253.693 161.332L253.687 161.331ZM256.229 175.389C252.073 182.219 269.059 182.121 264.578 174.626L256.229 175.389ZM228.737 130.754C224.4 132.452 226.284 135.938 230.352 138.834C233.293 139.562 235.268 140.812 236.597 142.066L244.416 140.272C245.188 135.526 237.179 128.7 230.291 130.285C229.746 130.407 229.225 130.563 228.74 130.751L228.737 130.754ZM237.852 143.655C236.913 150.64 253.782 148.295 245.81 141.829L237.855 143.655L237.852 143.655Z" fill="#7E7C7A"/>
</g>
<g clip-path="url(#clip6_68_86)">
<path d="M177.358 47.8067C182.472 47.7206 183.99 51.2828 183.136 55.1059C181.328 56.7303 180.778 58.4518 180.784 59.9604L172.683 61.1701C167.858 57.4763 168.521 49.0209 175.654 47.9555C176.216 47.8693 176.789 47.8201 177.359 47.809L177.358 47.8067ZM181.146 61.715L172.9 62.945C171.96 71.0909 188.091 67.2135 181.146 61.715ZM184.364 82.2602C183.794 82.2714 183.221 82.3207 182.659 82.4069C175.526 83.4722 174.863 91.9274 179.688 95.6213L187.789 94.4115C187.783 92.9029 188.336 91.1823 190.141 89.5569C190.995 85.734 189.477 82.1719 184.363 82.2577L184.364 82.2602ZM188.152 96.1688L179.906 97.3983C178.97 105.541 195.099 101.665 188.149 96.1678L188.152 96.1688ZM208.514 60.9668C203.41 61.5266 202.044 65.271 203.051 68.9752C204.918 70.3672 205.54 72.0145 205.597 73.5193L213.733 73.7042C218.391 69.41 217.385 61.0605 210.226 60.8994C209.662 60.8844 209.089 60.9075 208.52 60.9682L208.514 60.9668ZM205.309 75.3175C198.607 81.6788 214.855 83.5077 213.581 75.5022L205.309 75.3175ZM196.955 27.5499C192.136 28.7554 192.537 32.4566 195.259 35.8151C197.774 36.8774 199.158 38.3521 199.924 39.7569L208.104 38.8492C210.741 34.1898 205.833 26.4533 198.626 27.2565C198.057 27.3168 197.497 27.4143 196.958 27.5466L196.955 27.5499ZM200.485 41.4887C196.791 48.3696 213.827 47.9373 208.81 40.5651L200.487 41.4895L200.485 41.4887Z" fill="#7E7C7A"/>
</g>
<defs>
<clipPath id="clip0_68_86">
<rect width="95.594" height="110.294" fill="white" transform="matrix(0.50434 0.863505 -0.998009 0.0630687 179.53 810.198)"/>
</clipPath>
<clipPath id="clip1_68_86">
<rect width="113.198" height="92.1376" fill="white" transform="matrix(0.7561 0.654456 -0.91551 0.402295 192.797 705.333)"/>
</clipPath>
<clipPath id="clip2_68_86">
<rect width="118.729" height="84.891" fill="white" transform="matrix(0.823654 0.567093 -0.822705 0.568469 194.416 582.813)"/>
</clipPath>
<clipPath id="clip3_68_86">
<rect width="102.039" height="121.434" fill="white" transform="matrix(0.854915 0.518767 -0.901901 0.431942 286.743 329.151)"/>
</clipPath>
<clipPath id="clip4_68_86">
<rect width="125.202" height="97.379" fill="white" transform="matrix(0.971431 0.237322 -0.712374 0.7018 252.222 230.573)"/>
</clipPath>
<clipPath id="clip5_68_86">
<rect width="132.335" height="87.4389" fill="white" transform="matrix(0.99008 0.140504 -0.56469 0.825303 197.674 121.234)"/>
</clipPath>
<clipPath id="clip6_68_86">
<rect width="122.25" height="101.06" fill="white" transform="matrix(0.9618 0.273753 -0.752274 0.65885 171.126 14.5023)"/>
</clipPath>
</defs>
</svg>
