<svg width="402" height="197" viewBox="0 0 402 197" fill="none" xmlns="http://www.w3.org/2000/svg">
<mask id="mask0_337_379" style="mask-type:alpha" maskUnits="userSpaceOnUse" x="-1" y="0" width="403" height="194">
<rect x="401.957" y="194" width="401.957" height="194" transform="rotate(180 401.957 194)" fill="#D9D9D9"/>
</mask>
<g mask="url(#mask0_337_379)">
<path d="M407.628 175.096C228.975 115 94.6817 213.805 1.17156 157.096C-83.7007 105.625 -11.9842 -489.69 1.98945 -599.234C3.25655 -609.167 11.7083 -616.5 21.7221 -616.5H390.065C399.517 -616.5 407.564 -610.396 409.443 -601.133C432.718 -486.409 572.028 230.397 407.628 175.096Z" fill="#D3DEF1"/>
</g>
<path d="M65.1949 149.113C64.548 151.327 61.1207 151.423 57.7939 150.459C56.5852 149.427 55.1108 148.921 53.7494 148.687L53.8061 145.013C57.8206 143.514 65.3519 145.121 65.3022 148.356C65.3002 148.612 65.2634 148.866 65.1928 149.113L65.1949 149.113ZM52.1158 148.569L52.1748 144.829C44.9619 143.151 46.1734 150.698 52.1158 148.569ZM33.1322 146.743C33.2029 146.496 33.2396 146.241 33.2415 145.986C33.2913 142.75 25.7603 141.144 21.7456 142.642L21.689 146.317C23.0503 146.55 24.5237 147.057 25.7337 148.088C29.0601 149.053 32.4875 148.957 33.1347 146.743L33.1322 146.743ZM20.0528 146.199L20.1123 142.458C12.9016 140.783 14.1119 148.329 20.0541 146.198L20.0528 146.199ZM48.9133 160.462C49.1316 158.179 45.9484 157.006 42.4654 156.86C40.9456 157.446 39.3719 157.456 38.0068 157.245L36.6874 160.717C39.9 163.393 47.5722 164.265 48.7316 161.21C48.8251 160.969 48.8855 160.719 48.9113 160.465L48.9133 160.462ZM36.426 156.84C31.6388 152.962 27.6877 159.668 35.0875 160.371L36.426 156.84ZM80.6864 160.711C80.2819 158.449 76.8874 158.043 73.473 158.69C72.1587 159.606 70.6328 159.971 69.2575 160.081L68.9171 163.743C72.7453 165.606 80.4174 164.703 80.7142 161.476C80.7404 161.222 80.7319 160.966 80.6889 160.713L80.6864 160.711ZM67.6163 160.052C61.9344 157.387 59.9107 164.785 67.2698 163.778L67.6152 160.053L67.6163 160.052Z" fill="#181335" fill-opacity="0.7"/>
<g clip-path="url(#clip0_337_379)">
<path d="M168.5 142.506C168.493 144.799 165.208 145.704 161.724 145.559C160.268 144.848 158.701 144.708 157.321 144.805L156.349 141.24C159.81 138.842 167.536 138.611 168.392 141.75C168.462 141.997 168.497 142.251 168.498 142.507L168.5 142.506ZM155.709 145.078L154.721 141.449C147.282 141.536 150.561 148.542 155.709 145.078ZM136.854 147.808C136.853 147.552 136.818 147.298 136.748 147.051C135.892 143.912 128.166 144.143 124.705 146.542L125.677 150.106C127.057 150.009 128.623 150.15 130.08 150.86C133.564 151.005 136.849 150.1 136.856 147.807L136.854 147.808ZM124.063 150.379L123.075 146.751C115.639 146.839 118.917 153.844 124.063 150.378L124.063 150.379ZM155.937 157.329C155.51 155.07 152.106 154.691 148.7 155.374C147.395 156.301 145.877 156.683 144.499 156.803L144.194 160.47C148.046 162.295 155.703 161.321 155.97 158.094C155.993 157.84 155.982 157.583 155.936 157.332L155.937 157.329ZM142.858 156.786C137.148 154.172 135.204 161.587 142.551 160.514L142.858 156.786ZM186.711 150.046C185.688 147.956 182.294 148.367 179.175 149.801C178.161 150.997 176.789 151.711 175.49 152.143L176.184 155.762C180.404 156.656 187.566 153.967 186.951 150.778C186.906 150.527 186.826 150.281 186.714 150.047L186.711 150.046ZM173.896 152.503C167.661 151.273 167.772 158.902 174.602 156.187L173.895 152.505L173.896 152.503Z" fill="#181335" fill-opacity="0.7"/>
</g>
<g clip-path="url(#clip1_337_379)">
<path d="M275.115 133.176C274.881 135.459 271.52 136.085 268.065 135.648C266.685 134.818 265.139 134.548 263.754 134.528L263.139 130.897C266.823 128.799 274.54 129.217 275.082 132.414C275.127 132.666 275.137 132.922 275.113 133.177L275.115 133.176ZM262.122 134.665L261.498 130.968C254.081 130.431 256.653 137.683 262.122 134.665ZM243.076 135.803C243.1 135.548 243.09 135.292 243.045 135.04C242.503 131.842 234.786 131.424 231.102 133.523L231.718 137.154C233.102 137.173 234.647 137.445 236.028 138.274C239.483 138.71 242.844 138.085 243.078 135.802L243.076 135.803ZM230.083 137.291L229.459 133.594C222.045 133.059 224.616 140.31 230.084 137.29L230.083 137.291ZM261.138 146.884C260.936 144.599 257.584 143.936 254.124 144.331C252.732 145.144 251.183 145.397 249.799 145.401L249.132 149.028C252.788 151.168 260.51 150.84 261.095 147.649C261.143 147.397 261.157 147.141 261.136 146.887L261.138 146.884ZM248.167 145.246C242.739 142.165 240.069 149.386 247.492 148.934L248.167 145.246ZM292.504 142.212C291.692 140.045 288.272 140.17 285.024 141.336C283.896 142.442 282.458 143.038 281.122 143.359L281.456 147.022C285.57 148.266 292.968 146.188 292.671 142.962C292.65 142.707 292.595 142.456 292.507 142.213L292.504 142.212ZM279.499 143.585C273.412 141.837 272.768 149.443 279.838 147.312L279.498 143.586L279.499 143.585Z" fill="#181335" fill-opacity="0.7"/>
</g>
<path d="M371.438 139.994C370.819 142.215 367.393 142.348 364.054 141.419C362.832 140.401 361.352 139.911 359.987 139.692L359.997 136.017C363.992 134.475 371.543 136 371.535 139.236C371.536 139.491 371.503 139.746 371.435 139.994L371.438 139.994ZM358.352 139.592L358.363 135.851C351.13 134.252 352.438 141.785 358.352 139.592ZM339.347 137.971C339.414 137.724 339.448 137.469 339.446 137.214C339.455 133.978 331.904 132.453 327.908 133.995L327.899 137.67C329.263 137.889 330.743 138.379 331.966 139.397C335.304 140.326 338.73 140.192 339.349 137.971L339.347 137.971ZM326.261 137.569L326.273 133.829C319.041 132.232 320.348 139.764 326.263 137.568L326.261 137.569ZM355.302 151.519C355.491 149.233 352.293 148.095 348.809 147.987C347.297 148.589 345.723 148.616 344.355 148.42L343.081 151.907C346.327 154.547 354.01 155.336 355.13 152.268C355.221 152.027 355.278 151.776 355.3 151.521L355.302 151.519ZM342.77 148.032C337.933 144.207 334.068 150.955 341.476 151.577L342.77 148.032ZM387.076 151.423C386.643 149.166 383.243 148.797 379.838 149.48C378.535 150.41 377.014 150.792 375.64 150.917L375.347 154.582C379.199 156.403 386.859 155.418 387.114 152.188C387.137 151.933 387.125 151.677 387.079 151.425L387.076 151.423ZM373.999 150.905C368.283 148.302 366.354 155.722 373.7 154.635L373.998 150.906L373.999 150.905Z" fill="#181335" fill-opacity="0.7"/>
<defs>
<clipPath id="clip0_337_379">
<rect width="63.8671" height="66.7818" fill="white" transform="matrix(-0.510237 0.860034 -0.893414 -0.449234 199.082 137.624)"/>
</clipPath>
<clipPath id="clip1_337_379">
<rect width="64.3112" height="66.3542" fill="white" transform="matrix(-0.589107 0.808055 -0.850703 -0.525647 306.052 130.879)"/>
</clipPath>
</defs>
</svg>
