<svg width="402" height="126" viewBox="0 0 402 126" fill="none" xmlns="http://www.w3.org/2000/svg">
<mask id="mask0_289_1088" style="mask-type:alpha" maskUnits="userSpaceOnUse" x="0" y="0" width="402" height="104">
<rect x="402" y="104" width="402" height="104" transform="rotate(180 402 104)" fill="#D9D9D9"/>
</mask>
<g mask="url(#mask0_289_1088)">
<path d="M406.687 103.096C228.446 43 94.4628 141.805 1.16867 85.0956C-83.5057 33.626 -11.9597 -561.665 1.9838 -671.227C3.24829 -681.163 11.7014 -688.5 21.7175 -688.5H389.119C398.574 -688.5 406.624 -682.391 408.499 -673.124C431.726 -558.371 570.703 158.395 406.687 103.096Z" fill="#D3DEF1"/>
</g>
<path d="M65.5329 72.404C64.8876 74.8804 61.4688 74.9882 58.1503 73.909C56.9446 72.7549 55.4738 72.189 54.1159 71.9281L54.1724 67.8181C58.177 66.142 65.6895 67.9389 65.6399 71.558C65.6379 71.8436 65.6012 72.1279 65.5307 72.4042L65.5329 72.404ZM52.4863 71.7959L52.5452 67.6122C45.3502 65.7362 46.5587 74.1768 52.4863 71.7959ZM33.55 69.7531C33.6204 69.4768 33.6571 69.1925 33.659 68.9068C33.7087 65.2878 26.1963 63.4909 22.1917 65.1671L22.1352 69.2771C23.4931 69.538 24.9628 70.1049 26.1698 71.2578C29.488 72.3371 32.9068 72.2294 33.5524 69.7528L33.55 69.7531ZM20.5031 69.1448L20.5624 64.9613C13.3697 63.0874 14.577 71.5271 20.5044 69.1436L20.5031 69.1448ZM49.2918 85.0979C49.5095 82.5436 46.3342 81.2317 42.8599 81.0685C41.3439 81.7238 39.7741 81.7353 38.4124 81.4996L37.0963 85.383C40.3009 88.3754 47.954 89.3505 49.1105 85.9335C49.2038 85.6646 49.264 85.3846 49.2898 85.1002L49.2918 85.0979ZM36.8356 81.0466C32.0603 76.7094 28.119 84.2092 35.5004 84.9955L36.8356 81.0466ZM80.9858 85.3762C80.5823 82.8463 77.1963 82.3924 73.7904 83.1155C72.4794 84.1399 70.9573 84.5482 69.5854 84.6712L69.2458 88.7667C73.0645 90.8505 80.7176 89.8408 81.0136 86.2318C81.0397 85.9474 81.0312 85.6607 80.9883 85.3785L80.9858 85.3762ZM67.9482 84.6384C62.2805 81.6578 60.2618 89.9324 67.6026 88.8064L67.9471 84.6396L67.9482 84.6384Z" fill="#181335" fill-opacity="0.7"/>
<g clip-path="url(#clip0_289_1088)">
<path d="M168.581 65.0144C168.575 67.5789 165.298 68.5907 161.822 68.4289C160.369 67.6337 158.807 67.4774 157.43 67.5858L156.46 63.599C159.912 60.9161 167.62 60.658 168.474 64.1684C168.543 64.445 168.578 64.7295 168.579 65.0152L168.581 65.0144ZM155.822 67.8907L154.836 63.8321C147.416 63.9295 150.687 71.7652 155.822 67.8907ZM137.014 70.9443C137.013 70.6585 136.977 70.3741 136.908 70.0974C136.054 66.5871 128.347 66.8451 124.895 69.5282L125.864 73.5149C127.242 73.4066 128.803 73.5641 130.257 74.3578C133.732 74.5198 137.009 73.5079 137.016 70.9434L137.014 70.9443ZM124.254 73.8204L123.269 69.7619C115.851 69.8608 119.121 77.6959 124.255 73.8189L124.254 73.8204ZM156.049 81.5933C155.623 79.0671 152.228 78.6424 148.83 79.4072C147.528 80.4429 146.014 80.8707 144.639 81.0046L144.335 85.1067C148.178 87.1476 155.816 86.058 156.082 82.4489C156.106 82.1643 156.094 81.8778 156.048 81.5961L156.049 81.5933ZM143.003 80.9854C137.307 78.062 135.368 86.3559 142.697 85.156L143.003 80.9854ZM186.746 73.4474C185.726 71.1097 182.341 71.5701 179.23 73.1732C178.218 74.5112 176.849 75.3099 175.554 75.7929L176.246 79.8407C180.456 80.8406 187.6 77.833 186.986 74.2668C186.941 73.985 186.861 73.7103 186.749 73.4489L186.746 73.4474ZM173.964 76.1959C167.744 74.8204 167.855 83.3526 174.668 80.3154L173.963 76.1973L173.964 76.1959Z" fill="#181335" fill-opacity="0.7"/>
</g>
<g clip-path="url(#clip1_289_1088)">
<path d="M274.93 54.5798C274.698 57.1329 271.345 57.8325 267.898 57.3445C266.522 56.416 264.98 56.1135 263.598 56.092L262.985 52.0306C266.659 49.6834 274.358 50.151 274.898 53.7272C274.943 54.0091 274.953 54.2957 274.928 54.5803L274.93 54.5798ZM261.971 56.2445L261.347 52.1101C253.949 51.5094 256.515 59.6201 261.971 56.2445ZM242.971 57.517C242.995 57.2324 242.985 56.9458 242.941 56.6638C242.4 53.0878 234.702 52.6201 231.028 54.9675L231.641 59.0288C233.022 59.0504 234.563 59.354 235.941 60.2811C239.388 60.7692 242.74 60.0696 242.973 57.5164L242.971 57.517ZM230.011 59.1816L229.388 55.0473C221.992 54.4484 224.557 62.5584 230.012 59.1802L230.011 59.1816ZM260.988 69.9115C260.787 67.3558 257.443 66.6136 253.991 67.0557C252.604 67.9648 251.058 68.2485 249.677 68.2525L249.013 72.309C252.659 74.7027 260.362 74.3358 260.945 70.7667C260.994 70.4854 261.007 70.199 260.986 69.9142L260.988 69.9115ZM248.049 68.0795C242.636 64.6328 239.972 72.7099 247.376 72.204L248.049 68.0795ZM292.276 64.6856C291.466 62.2616 288.055 62.4018 284.815 63.7057C283.69 64.9431 282.256 65.6097 280.923 65.969L281.256 70.0651C285.359 71.4566 292.739 69.1331 292.443 65.5241C292.422 65.2392 292.367 64.9581 292.279 64.6873L292.276 64.6856ZM279.304 66.2208C273.232 64.2662 272.589 72.7734 279.642 70.3894L279.303 66.2222L279.304 66.2208Z" fill="#181335" fill-opacity="0.7"/>
</g>
<path d="M371.014 62.2044C370.397 64.6885 366.979 64.8378 363.649 63.7991C362.43 62.6597 360.953 62.1118 359.592 61.8674L359.602 57.7569C363.587 56.0322 371.119 57.7377 371.111 61.3571C371.112 61.6428 371.079 61.9275 371.012 62.2046L371.014 62.2044ZM357.961 61.755L357.972 57.5709C350.756 55.7825 352.061 64.2078 357.961 61.755ZM339.003 59.9427C339.07 59.6656 339.103 59.3808 339.102 59.0951C339.11 55.4758 331.578 53.7703 327.593 55.4952L327.583 59.6056C328.944 59.85 330.42 60.3989 331.64 61.5371C334.97 62.576 338.388 62.4266 339.005 59.9424L339.003 59.9427ZM325.95 59.4931L325.961 55.3092C318.748 53.523 320.051 61.9473 325.951 59.4919L325.95 59.4931ZM354.919 75.0949C355.107 72.5382 351.917 71.265 348.441 71.1441C346.933 71.8178 345.363 71.8483 343.999 71.6293L342.727 75.5284C345.966 78.4816 353.629 79.3635 354.747 75.9327C354.837 75.6626 354.894 75.382 354.917 75.0973L354.919 75.0949ZM342.417 71.1954C337.593 66.9166 333.737 74.4638 341.127 75.1603L342.417 71.1954ZM386.614 74.9877C386.181 72.4628 382.79 72.0502 379.393 72.8147C378.094 73.855 376.576 74.2817 375.206 74.4214L374.913 78.5207C378.755 80.558 386.396 79.4553 386.651 75.8428C386.674 75.5581 386.662 75.2716 386.616 74.99L386.614 74.9877ZM373.569 74.4085C367.867 71.497 365.943 79.7957 373.271 78.5804L373.567 74.4097L373.569 74.4085Z" fill="#181335" fill-opacity="0.7"/>
<defs>
<clipPath id="clip0_289_1088">
<rect width="69.5038" height="68.3224" fill="white" transform="matrix(-0.467691 0.883892 -0.871095 -0.491115 199.087 59.5541)"/>
</clipPath>
<clipPath id="clip1_289_1088">
<rect width="69.3285" height="68.5004" fill="white" transform="matrix(-0.545114 0.838362 -0.821999 -0.569488 305.791 52.0101)"/>
</clipPath>
</defs>
</svg>
