<svg width="414" height="201" viewBox="0 0 414 201" fill="none" xmlns="http://www.w3.org/2000/svg">
<mask id="mask0_218_853" style="mask-type:alpha" maskUnits="userSpaceOnUse" x="4" y="0" width="402" height="179">
<rect x="406" y="179" width="402" height="179" transform="rotate(180 406 179)" fill="#D9D9D9"/>
</mask>
<g mask="url(#mask0_218_853)">
<path d="M411.672 175.096C233 115 98.6916 213.805 5.17151 157.096C-79.7098 105.625 -7.98553 -489.691 5.98953 -599.234C7.25674 -609.167 15.7085 -616.5 25.7221 -616.5H394.108C403.56 -616.5 411.607 -610.397 413.487 -601.134C436.763 -486.411 576.089 230.397 411.672 175.096Z" fill="#EDE9FF"/>
</g>
<path d="M67.129 147.404C66.4629 149.88 62.9339 149.988 59.5085 148.909C58.2639 147.755 56.7457 147.189 55.344 146.928L55.4023 142.818C59.5359 141.142 67.2906 142.939 67.2395 146.558C67.2374 146.844 67.1996 147.128 67.1268 147.404L67.129 147.404ZM53.6618 146.796L53.7226 142.612C46.2957 140.736 47.5432 149.177 53.6618 146.796ZM34.1151 144.753C34.1878 144.477 34.2256 144.192 34.2276 143.907C34.2789 140.288 26.5244 138.491 22.3907 140.167L22.3323 144.277C23.734 144.538 25.2511 145.105 26.497 146.258C29.9221 147.337 33.4512 147.229 34.1176 144.753L34.1151 144.753ZM20.6477 144.145L20.7089 139.961C13.2842 138.087 14.5305 146.527 20.649 144.144L20.6477 144.145ZM50.3643 160.098C50.5891 157.544 47.3115 156.232 43.7251 156.069C42.1602 156.724 40.5398 156.735 39.1342 156.5L37.7757 160.383C41.0836 163.375 48.9834 164.351 50.1772 160.934C50.2735 160.665 50.3357 160.385 50.3623 160.1L50.3643 160.098ZM37.5066 156.047C32.5774 151.709 28.509 159.209 36.1284 159.995L37.5066 156.047ZM83.08 160.376C82.6636 157.846 79.1683 157.392 75.6527 158.116C74.2994 159.14 72.7282 159.548 71.3121 159.671L70.9616 163.767C74.9034 165.851 82.8031 164.841 83.1087 161.232C83.1357 160.947 83.1269 160.661 83.0826 160.379L83.08 160.376ZM69.6222 159.638C63.7717 156.658 61.688 164.932 69.2655 163.806L69.6211 159.64L69.6222 159.638Z" fill="#181335" fill-opacity="0.7"/>
<g clip-path="url(#clip0_218_853)">
<path d="M173.499 140.015C173.492 142.579 170.11 143.591 166.522 143.429C165.022 142.634 163.41 142.478 161.988 142.586L160.987 138.599C164.551 135.916 172.507 135.658 173.388 139.169C173.46 139.445 173.496 139.73 173.497 140.015L173.499 140.015ZM160.328 142.891L159.311 138.832C151.651 138.93 155.028 146.765 160.328 142.891ZM140.914 145.944C140.913 145.659 140.876 145.374 140.805 145.098C139.924 141.587 131.968 141.845 128.404 144.528L129.405 148.515C130.827 148.407 132.439 148.564 133.939 149.358C137.527 149.52 140.909 148.508 140.916 145.943L140.914 145.944ZM127.743 148.82L126.726 144.762C119.069 144.861 122.444 152.696 127.744 148.819L127.743 148.82ZM160.563 156.593C160.123 154.067 156.619 153.643 153.111 154.407C151.767 155.443 150.204 155.871 148.785 156.005L148.472 160.107C152.438 162.148 160.323 161.058 160.597 157.449C160.621 157.164 160.609 156.878 160.562 156.596L160.563 156.593ZM147.096 155.986C141.217 153.062 139.215 161.356 146.78 160.156L147.096 155.986ZM192.25 148.448C191.197 146.11 187.702 146.57 184.491 148.173C183.447 149.511 182.033 150.31 180.696 150.793L181.411 154.841C185.756 155.841 193.131 152.833 192.498 149.267C192.451 148.985 192.368 148.71 192.253 148.449L192.25 148.448ZM179.055 151.196C172.635 149.82 172.749 158.353 179.782 155.316L179.054 151.197L179.055 151.196Z" fill="#181335" fill-opacity="0.7"/>
</g>
<g clip-path="url(#clip1_218_853)">
<path d="M283.277 129.58C283.036 132.133 279.576 132.833 276.018 132.345C274.597 131.416 273.005 131.114 271.579 131.092L270.946 127.031C274.739 124.683 282.685 125.151 283.243 128.727C283.289 129.009 283.3 129.296 283.275 129.58L283.277 129.58ZM269.899 131.245L269.256 127.11C261.619 126.51 264.268 134.62 269.899 131.245ZM250.287 132.517C250.312 132.233 250.302 131.946 250.256 131.664C249.698 128.088 241.752 127.62 237.958 129.968L238.592 134.029C240.018 134.05 241.608 134.354 243.03 135.281C246.588 135.769 250.049 135.07 250.289 132.516L250.287 132.517ZM236.909 134.182L236.266 130.047C228.632 129.448 231.279 137.558 236.91 134.18L236.909 134.182ZM268.885 144.912C268.677 142.356 265.225 141.614 261.663 142.056C260.23 142.965 258.635 143.249 257.21 143.253L256.523 147.309C260.287 149.703 268.239 149.336 268.841 145.767C268.891 145.485 268.905 145.199 268.883 144.914L268.885 144.912ZM255.529 143.08C249.941 139.633 247.191 147.71 254.834 147.204L255.529 143.08ZM301.182 139.686C300.346 137.262 296.824 137.402 293.48 138.706C292.318 139.943 290.838 140.61 289.463 140.969L289.806 145.065C294.042 146.457 301.659 144.133 301.354 140.524C301.333 140.239 301.276 139.958 301.185 139.687L301.182 139.686ZM287.791 141.221C281.523 139.266 280.86 147.773 288.14 145.389L287.79 141.222L287.791 141.221Z" fill="#181335" fill-opacity="0.7"/>
</g>
<path d="M382.457 137.204C381.82 139.689 378.293 139.838 374.855 138.799C373.597 137.66 372.072 137.112 370.667 136.867L370.677 132.757C374.791 131.032 382.566 132.738 382.558 136.357C382.559 136.643 382.524 136.928 382.455 137.205L382.457 137.204ZM368.984 136.755L368.995 132.571C361.547 130.783 362.893 139.208 368.984 136.755ZM349.414 134.943C349.484 134.666 349.518 134.381 349.517 134.095C349.525 130.476 341.75 128.77 337.637 130.495L337.627 134.606C339.031 134.85 340.555 135.399 341.814 136.537C345.252 137.576 348.78 137.427 349.417 134.942L349.414 134.943ZM335.941 134.493L335.952 130.309C328.506 128.523 329.852 136.947 335.942 134.492L335.941 134.493ZM365.843 150.095C366.038 147.538 362.745 146.265 359.157 146.144C357.6 146.818 355.98 146.848 354.571 146.629L353.259 150.528C356.602 153.482 364.512 154.364 365.666 150.933C365.759 150.663 365.818 150.382 365.841 150.097L365.843 150.095ZM352.939 146.195C347.959 141.917 343.979 149.464 351.607 150.16L352.939 146.195ZM398.56 149.988C398.114 147.463 394.613 147.05 391.106 147.815C389.765 148.855 388.199 149.282 386.784 149.421L386.482 153.521C390.448 155.558 398.336 154.455 398.599 150.843C398.622 150.558 398.61 150.272 398.562 149.99L398.56 149.988ZM385.094 149.409C379.209 146.497 377.223 154.796 384.787 153.58L385.093 149.41L385.094 149.409Z" fill="#181335" fill-opacity="0.7"/>
<defs>
<clipPath id="clip0_218_853">
<rect width="70" height="70" fill="white" transform="translate(204.988 134.554) rotate(118.643)"/>
</clipPath>
<clipPath id="clip1_218_853">
<rect width="70" height="70" fill="white" transform="translate(315.132 127.01) rotate(123.868)"/>
</clipPath>
</defs>
</svg>
